<?xml version="1.0" encoding="utf-8"?>
<!-- Generator: Adobe Illustrator 15.0.0, SVG Export Plug-In . SVG Version: 6.00 Build 0)  -->
<!DOCTYPE svg PUBLIC "-//W3C//DTD SVG 1.1//EN" "http://www.w3.org/Graphics/SVG/1.1/DTD/svg11.dtd">
<svg version="1.1" id="Layer_1" xmlns="http://www.w3.org/2000/svg" xmlns:xlink="http://www.w3.org/1999/xlink" x="0px" y="0px"
	 width="25px" height="25px" viewBox="37.5 37.5 25 25" enable-background="new 37.5 37.5 25 25" xml:space="preserve">
<path fill="#7F7F7F" d="M51.24,49.978l10.024-10.032c0.021-0.047,0.047-0.071,0.068-0.071c0.048-0.047,0.075-0.095,0.089-0.142
	c0.035-0.037,0.061-0.089,0.071-0.161v-0.194c0-0.083-0.024-0.196-0.071-0.337c-0.014-0.106-0.07-0.202-0.177-0.284
	c-0.12-0.119-0.226-0.189-0.319-0.213c-0.143-0.047-0.255-0.071-0.336-0.071h-0.197l-0.087,0.071l-0.035,0.036h-0.019
	c-0.059,0.012-0.102,0.03-0.124,0.054c-0.024,0.023-0.047,0.044-0.072,0.063c-0.021,0.018-0.038,0.032-0.053,0.044l-0.034,0.018
	l-9.971,9.979l-9.775-9.82c-0.071-0.035-0.112-0.053-0.124-0.053c-0.036-0.071-0.089-0.106-0.16-0.106
	c-0.011-0.024-0.065-0.042-0.16-0.055c-0.047-0.023-0.106-0.035-0.178-0.035c-0.095,0-0.212,0.018-0.354,0.054
	c-0.06,0.012-0.148,0.089-0.267,0.23c-0.142,0.142-0.218,0.231-0.231,0.267c-0.035,0.142-0.053,0.26-0.053,0.355
	c0,0.072,0.012,0.13,0.036,0.178c0.012,0.095,0.03,0.148,0.054,0.16c0,0.072,0.035,0.125,0.106,0.161
	c0,0.011,0.018,0.053,0.053,0.124l9.811,9.784l-9.97,9.979l-0.019,0.036c-0.012,0.012-0.027,0.03-0.044,0.054
	c-0.018,0.025-0.039,0.048-0.063,0.071l-0.054,0.124c0,0.013-0.012,0.041-0.036,0.088L38.5,60.387v0.195
	c0,0.083,0.024,0.195,0.071,0.337c0.036,0.108,0.107,0.213,0.212,0.319c0.083,0.083,0.178,0.142,0.284,0.178
	c0.19,0.047,0.302,0.07,0.337,0.07h0.195l0.142-0.07c0.024-0.012,0.054-0.03,0.088-0.053c0.035-0.024,0.059-0.036,0.071-0.036
	c0-0.024,0.023-0.048,0.07-0.071l10.024-10.032l9.969,9.98L60,61.221c0.012,0.012,0.028,0.028,0.053,0.046s0.049,0.038,0.071,0.063
	c0.035,0.033,0.077,0.063,0.124,0.087l0.142,0.071h0.372c0.025-0.024,0.062-0.035,0.107-0.035c0.045-0.025,0.076-0.037,0.087-0.037
	c0.024-0.024,0.079-0.053,0.161-0.087c0.036-0.036,0.065-0.078,0.089-0.125c0.047-0.024,0.088-0.054,0.124-0.089
	c0.036-0.082,0.065-0.136,0.088-0.16c0-0.013,0.012-0.041,0.035-0.089c0-0.047,0.012-0.083,0.036-0.106v-0.373l-0.071-0.142
	c-0.035-0.036-0.064-0.077-0.086-0.124c-0.024-0.024-0.046-0.047-0.064-0.071c-0.017-0.023-0.032-0.041-0.043-0.054l-0.019-0.036
	L51.24,49.978z"/>
</svg>
