<?xml version="1.0" encoding="utf-8"?>
<!-- Generator: Adobe Illustrator 15.0.0, SVG Export Plug-In . SVG Version: 6.00 Build 0)  -->
<!DOCTYPE svg PUBLIC "-//W3C//DTD SVG 1.1//EN" "http://www.w3.org/Graphics/SVG/1.1/DTD/svg11.dtd">
<svg version="1.1" id="Layer_1" xmlns="http://www.w3.org/2000/svg" xmlns:xlink="http://www.w3.org/1999/xlink" x="0px" y="0px"
	 width="595.275px" height="595.281px" viewBox="0.003 123.305 595.275 595.281"
	 enable-background="new 0.003 123.305 595.275 595.281" xml:space="preserve">
<rect x="213.235" y="171.547" fill="#FFFFFF" width="266.986" height="547.034"/>
<path fill="#475993" d="M515.062,123.305H80.218c-44.301,0-80.215,35.913-80.215,80.215v434.847
	c0,44.303,35.913,80.215,80.215,80.215h214.463l0.366-212.719h-55.265c-7.183,0-13.012-5.809-13.039-12.99l-0.266-68.568
	c-0.027-7.221,5.819-13.089,13.041-13.089h55.164V344.96c0-76.888,46.958-118.753,115.547-118.753h56.282
	c7.201,0,13.04,5.838,13.04,13.04v57.817c0,7.2-5.835,13.036-13.033,13.041l-34.539,0.016c-37.301,0-44.523,17.725-44.523,43.737
	v57.359h81.962c7.81,0,13.869,6.819,12.949,14.574l-8.127,68.568c-0.778,6.563-6.342,11.506-12.949,11.506h-73.47l-0.365,212.721
	h127.608c44.301,0,80.214-35.914,80.214-80.215V203.52C595.278,159.218,559.365,123.305,515.062,123.305z"/>
</svg>
