<?xml version="1.0" encoding="utf-8"?>
<!-- Generator: Adobe Illustrator 15.0.0, SVG Export Plug-In . SVG Version: 6.00 Build 0)  -->
<!DOCTYPE svg PUBLIC "-//W3C//DTD SVG 1.1//EN" "http://www.w3.org/Graphics/SVG/1.1/DTD/svg11.dtd">
<svg version="1.1" id="Camada_1" xmlns="http://www.w3.org/2000/svg" xmlns:xlink="http://www.w3.org/1999/xlink" x="0px" y="0px"
	 width="25px" height="25px" viewBox="3.5 3.5 25 25" enable-background="new 3.5 3.5 25 25" xml:space="preserve">
<path d="M7.071,3.5h17.857c1.964,0,3.571,1.607,3.571,3.571v17.857c0,1.964-1.607,3.571-3.571,3.571H7.071
	c-1.964,0-3.571-1.607-3.571-3.571V7.071C3.5,5.107,5.107,3.5,7.071,3.5z"/>
<path fill="#FFFFFF" d="M13.2,16.1v9.7c0,0.101,0.1,0.3,0.3,0.3h3.9c0.199,0,0.3-0.1,0.3-0.3V16h2.8c0.1,0,0.3-0.1,0.3-0.2l0.3-3
	c0-0.2-0.1-0.3-0.3-0.3h-3.1v-2.1c0-0.5,0.399-0.9,1-0.9h2.2c0.199,0,0.3-0.1,0.3-0.3V6.3C21,6.1,20.9,6,20.7,6H17.1
	C15,6,13.2,7.6,13.2,9.6v2.9h-1.9c-0.2,0-0.3,0.1-0.3,0.3v3c0,0.1,0.1,0.3,0.3,0.3H13.2L13.2,16.1z"/>
</svg>
