<?xml version="1.0" encoding="utf-8"?>
<!-- Generator: Adobe Illustrator 15.0.0, SVG Export Plug-In . SVG Version: 6.00 Build 0)  -->
<!DOCTYPE svg PUBLIC "-//W3C//DTD SVG 1.1//EN" "http://www.w3.org/Graphics/SVG/1.1/DTD/svg11.dtd">
<svg version="1.1" id="Layer_1" xmlns="http://www.w3.org/2000/svg" xmlns:xlink="http://www.w3.org/1999/xlink" x="0px" y="0px"
	 width="25px" height="25px" viewBox="72.031 72.031 25 25" enable-background="new 72.031 72.031 25 25" xml:space="preserve">
<g>
	<path d="M90.132,72.031H78.93c-3.804,0-6.899,3.095-6.899,6.899v11.202c0,3.804,3.095,6.899,6.899,6.899h11.202
		c3.804,0,6.899-3.096,6.899-6.899V78.93C97.031,75.126,93.936,72.031,90.132,72.031z M94.813,90.132c0,2.581-2.1,4.681-4.681,4.681
		H78.93c-2.581,0-4.681-2.1-4.681-4.681V78.93c0-2.581,2.1-4.681,4.681-4.681h11.202c2.581,0,4.681,2.1,4.681,4.681V90.132
		L94.813,90.132z"/>
	<path d="M84.531,78.09c-3.552,0-6.442,2.89-6.442,6.442c0,3.552,2.89,6.441,6.442,6.441s6.442-2.89,6.442-6.441
		C90.973,80.979,88.083,78.09,84.531,78.09z M84.531,88.754c-2.329,0-4.224-1.894-4.224-4.223c0-2.329,1.895-4.224,4.224-4.224
		c2.329,0,4.224,1.895,4.224,4.224C88.755,86.861,86.86,88.754,84.531,88.754z"/>
	<path d="M91.243,76.209c-0.428,0-0.848,0.173-1.149,0.476c-0.304,0.302-0.478,0.722-0.478,1.15c0,0.428,0.175,0.847,0.478,1.15
		c0.302,0.302,0.722,0.476,1.149,0.476c0.429,0,0.847-0.174,1.15-0.476c0.303-0.303,0.476-0.723,0.476-1.15
		c0-0.429-0.173-0.849-0.476-1.15C92.092,76.382,91.672,76.209,91.243,76.209z"/>
</g>
</svg>
