<?xml version="1.0" encoding="utf-8"?>
<!-- Generator: Adobe Illustrator 15.0.0, SVG Export Plug-In . SVG Version: 6.00 Build 0)  -->
<!DOCTYPE svg PUBLIC "-//W3C//DTD SVG 1.1//EN" "http://www.w3.org/Graphics/SVG/1.1/DTD/svg11.dtd">
<svg version="1.1" id="Layer_1" xmlns="http://www.w3.org/2000/svg" xmlns:xlink="http://www.w3.org/1999/xlink" x="0px" y="0px"
	 width="205.354px" height="71.75px" viewBox="0 0 205.354 71.75" enable-background="new 0 0 205.354 71.75" xml:space="preserve">
<g>
	<path d="M7.052,22.824v-8.925L0.375,1.792h3.121l2.964,5.804c0.78,1.591,1.435,2.871,2.09,4.337h0.063
		c0.562-1.373,1.311-2.746,2.122-4.337l3.027-5.804h3.058L9.798,13.868v8.956H7.052z"/>
	<path d="M27.584,19.204c0,1.311,0.063,2.591,0.219,3.62h-2.465l-0.219-1.903h-0.094c-0.843,1.186-2.465,2.246-4.618,2.246
		c-3.058,0-4.618-2.152-4.618-4.337c0-3.651,3.245-5.648,9.08-5.617v-0.312c0-1.217-0.343-3.495-3.432-3.464
		c-1.436,0-2.902,0.406-3.963,1.124L16.85,8.72c1.248-0.78,3.089-1.311,4.993-1.311c4.618,0,5.741,3.152,5.741,6.147V19.204z
		 M24.932,15.117c-2.995-0.063-6.397,0.468-6.397,3.4c0,1.811,1.186,2.622,2.559,2.622c1.997,0,3.276-1.249,3.714-2.528
		c0.093-0.312,0.124-0.624,0.124-0.873V15.117z"/>
	<path d="M32.016,12.434c0-1.779-0.031-3.308-0.125-4.712h2.402l0.125,2.996h0.094c0.687-2.028,2.371-3.308,4.213-3.308
		c0.28,0,0.499,0.031,0.748,0.063v2.59C39.192,10,38.911,10,38.537,10c-1.935,0-3.308,1.435-3.683,3.495
		c-0.063,0.374-0.094,0.843-0.094,1.279v8.051h-2.745V12.434z"/>
	<path d="M55.574,15.148c0,5.585-3.9,8.019-7.521,8.019c-4.057,0-7.239-2.995-7.239-7.77c0-5.024,3.339-7.988,7.489-7.988
		C52.641,7.409,55.574,10.561,55.574,15.148z M43.623,15.304c0,3.308,1.872,5.805,4.556,5.805c2.621,0,4.587-2.466,4.587-5.867
		c0-2.559-1.279-5.772-4.524-5.772C45.027,9.469,43.623,12.465,43.623,15.304z"/>
	<path d="M58.663,20.047c0.843,0.499,2.278,1.062,3.651,1.062c1.966,0,2.901-0.968,2.901-2.247c0-1.311-0.78-1.997-2.777-2.746
		c-2.745-0.998-4.024-2.465-4.024-4.275c0-2.434,1.997-4.431,5.211-4.431c1.528,0,2.87,0.406,3.682,0.937l-0.655,1.997
		c-0.593-0.375-1.685-0.905-3.089-0.905c-1.623,0-2.496,0.936-2.496,2.06c0,1.248,0.873,1.81,2.839,2.59
		c2.59,0.968,3.963,2.278,3.963,4.524c0,2.684-2.091,4.556-5.616,4.556c-1.654,0-3.183-0.437-4.244-1.061L58.663,20.047z"/>
	<path d="M71.395,0.669h2.745v22.155h-2.745V0.669z"/>
	<path d="M89.368,19.204c0,1.311,0.063,2.591,0.218,3.62h-2.465l-0.219-1.903h-0.094c-0.842,1.186-2.465,2.246-4.618,2.246
		c-3.058,0-4.618-2.152-4.618-4.337c0-3.651,3.245-5.648,9.081-5.617v-0.312c0-1.217-0.344-3.495-3.433-3.464
		c-1.436,0-2.902,0.406-3.963,1.124L78.634,8.72c1.248-0.78,3.089-1.311,4.992-1.311c4.618,0,5.742,3.152,5.742,6.147V19.204z
		 M86.716,15.117c-2.996-0.063-6.397,0.468-6.397,3.4c0,1.811,1.186,2.622,2.559,2.622c1.997,0,3.276-1.249,3.714-2.528
		c0.094-0.312,0.125-0.624,0.125-0.873V15.117z"/>
	<path d="M94.642,7.721l2.028,7.676c0.405,1.686,0.812,3.245,1.092,4.806h0.094c0.344-1.529,0.843-3.151,1.342-4.774l2.465-7.708
		h2.31l2.34,7.551c0.563,1.811,0.999,3.401,1.342,4.931h0.094c0.25-1.529,0.655-3.12,1.155-4.899l2.152-7.583h2.715l-4.867,15.103
		h-2.497l-2.309-7.208c-0.53-1.686-0.968-3.183-1.342-4.961h-0.063c-0.375,1.81-0.843,3.37-1.373,4.993l-2.434,7.177h-2.497
		L91.833,7.721H94.642z"/>
</g>
<g>
	<path fill="none" stroke="#000000" d="M10.798,59.834L1.937,24.908h4.767l4.146,17.67c1.037,4.353,1.969,8.706,2.591,12.074h0.104
		c0.57-3.472,1.658-7.617,2.85-12.126l4.664-17.618h4.715l4.249,17.722c0.985,4.146,1.918,8.291,2.436,11.971h0.104
		c0.726-3.835,1.71-7.722,2.799-12.074l4.611-17.618h4.612l-9.897,34.926h-4.716l-4.404-18.188c-1.088-4.456-1.813-7.876-2.28-11.4
		h-0.104c-0.57,3.472-1.399,6.892-2.694,11.4l-4.975,18.188H10.798z"/>
	<path fill="none" stroke="#000000" d="M53.036,27.706c0,1.555-1.089,2.798-2.902,2.798c-1.658,0-2.746-1.244-2.746-2.798
		c0-1.554,1.14-2.85,2.85-2.85C51.896,24.856,53.036,26.1,53.036,27.706z M47.958,59.834v-25.08h4.56v25.08H47.958z"/>
	<path fill="none" stroke="#000000" d="M59.463,55.222c1.398,0.829,3.782,1.763,6.063,1.763c3.265,0,4.819-1.606,4.819-3.731
		c0-2.177-1.296-3.316-4.612-4.56c-4.56-1.658-6.685-4.094-6.685-7.1c0-4.042,3.316-7.358,8.654-7.358
		c2.539,0,4.767,0.674,6.114,1.555l-1.088,3.316c-0.984-0.622-2.799-1.503-5.13-1.503c-2.695,0-4.146,1.555-4.146,3.42
		c0,2.073,1.45,3.006,4.715,4.301c4.301,1.606,6.581,3.783,6.581,7.515c0,4.456-3.472,7.565-9.327,7.565
		c-2.746,0-5.285-0.726-7.047-1.762L59.463,55.222z"/>
	<path fill="none" stroke="#000000" d="M103.304,47.087c0,9.275-6.478,13.317-12.488,13.317c-6.736,0-12.022-4.975-12.022-12.903
		c0-8.343,5.545-13.266,12.437-13.266C98.433,34.235,103.304,39.469,103.304,47.087z M83.457,47.346
		c0,5.493,3.109,9.639,7.565,9.639c4.353,0,7.617-4.094,7.617-9.742c0-4.249-2.124-9.587-7.514-9.587
		C85.789,37.655,83.457,42.63,83.457,47.346z"/>
	<path fill="none" stroke="#000000" d="M114.552,28.743v6.011h6.529v3.472h-6.529V51.75c0,3.109,0.881,4.871,3.42,4.871
		c1.244,0,1.97-0.104,2.644-0.311l0.207,3.472c-0.881,0.311-2.28,0.622-4.042,0.622c-2.125,0-3.835-0.726-4.923-1.918
		c-1.244-1.398-1.762-3.627-1.762-6.581v-13.68h-3.887v-3.472h3.887V30.09L114.552,28.743z"/>
	<path fill="none" stroke="#000000" d="M125.592,55.222c1.398,0.829,3.782,1.763,6.063,1.763c3.265,0,4.819-1.606,4.819-3.731
		c0-2.177-1.296-3.316-4.612-4.56c-4.56-1.658-6.685-4.094-6.685-7.1c0-4.042,3.316-7.358,8.654-7.358
		c2.539,0,4.767,0.674,6.114,1.555l-1.088,3.316c-0.984-0.622-2.799-1.503-5.13-1.503c-2.695,0-4.146,1.555-4.146,3.42
		c0,2.073,1.45,3.006,4.715,4.301c4.301,1.606,6.581,3.783,6.581,7.515c0,4.456-3.472,7.565-9.327,7.565
		c-2.746,0-5.285-0.726-7.047-1.762L125.592,55.222z"/>
	<path fill="none" stroke="#000000" d="M151.244,46.258h0.104c0.622-0.881,1.451-1.97,2.177-2.851l7.41-8.653h5.44l-9.638,10.312
		l11.037,14.769h-5.597l-8.602-12.021l-2.332,2.591v9.431h-4.508V23.042h4.508V46.258z"/>
	<path fill="none" stroke="#000000" d="M177.001,27.706c0,1.555-1.089,2.798-2.902,2.798c-1.658,0-2.746-1.244-2.746-2.798
		c0-1.554,1.14-2.85,2.85-2.85C175.86,24.856,177.001,26.1,177.001,27.706z M171.923,59.834v-25.08h4.56v25.08H171.923z"/>
	<path fill="none" stroke="#000000" d="M185.708,34.754l5.44,14.82c0.622,1.658,1.244,3.627,1.658,5.13h0.104
		c0.467-1.503,0.984-3.42,1.606-5.233l4.975-14.717h4.819l-6.84,17.877c-3.265,8.603-5.493,12.955-8.603,15.701
		c-2.279,1.918-4.456,2.695-5.596,2.902l-1.141-3.783c1.141-0.362,2.643-1.088,3.99-2.229c1.244-0.984,2.746-2.746,3.835-5.078
		c0.207-0.466,0.362-0.829,0.362-1.088s-0.104-0.622-0.362-1.191l-9.224-23.111H185.708z"/>
</g>
</svg>
