<?xml version="1.0" encoding="utf-8"?>
<!-- Generator: Adobe Illustrator 15.0.0, SVG Export Plug-In . SVG Version: 6.00 Build 0)  -->
<!DOCTYPE svg PUBLIC "-//W3C//DTD SVG 1.1//EN" "http://www.w3.org/Graphics/SVG/1.1/DTD/svg11.dtd">
<svg version="1.1" id="Layer_1" xmlns="http://www.w3.org/2000/svg" xmlns:xlink="http://www.w3.org/1999/xlink" x="0px" y="0px"
	 width="100px" height="100px" viewBox="0 0 100 100" enable-background="new 0 0 100 100" xml:space="preserve">
<path opacity="0.7" fill="#FFFFFF" d="M100,88c0,6.627-5.373,12-12,12H12c-6.627,0-12-5.373-12-12V12C0,5.373,5.373,0,12,0h76
	c6.627,0,12,5.373,12,12V88z"/>
<path fill="none" stroke="#1C1C1C" stroke-width="2" stroke-miterlimit="10" d="M98.999,87.24c0,6.494-5.248,11.76-11.722,11.76
	H12.72C6.246,99,0.999,93.734,0.999,87.24V12.76C0.999,6.265,6.246,1,12.72,1h74.559C93.752,1,99,6.265,99,12.76L98.999,87.24
	L98.999,87.24z"/>
<path fill="#0F0F0F" d="M16.685,55.581c-0.781,0-1.489-0.13-2.122-0.392c-0.744-0.297-1.338-0.688-1.784-1.172
	c-0.596-0.521-1.024-1.136-1.285-1.843C11.271,51.77,11.16,51.042,11.16,50c0-1.004,0.112-1.711,0.334-2.122
	c0.298-0.633,0.708-1.228,1.228-1.785c0.596-0.596,1.209-1.024,1.841-1.284c0.632-0.26,1.338-0.391,2.122-0.391h66.627
	c0.779,0,1.486,0.13,2.123,0.391c0.74,0.298,1.338,0.688,1.781,1.172c0.561,0.521,0.986,1.153,1.284,1.897
	c0.226,0.408,0.335,1.116,0.335,2.122c0,1.007-0.109,1.714-0.335,2.122c-0.298,0.633-0.707,1.229-1.229,1.784
	c-0.596,0.597-1.211,1.021-1.842,1.281c-0.632,0.264-1.338,0.394-2.121,0.394H16.685L16.685,55.581z M16.685,88.841
	c-0.929,0-1.637-0.13-2.122-0.391c-0.706-0.298-1.301-0.688-1.784-1.173c-0.596-0.596-1.024-1.209-1.285-1.84
	c-0.223-0.408-0.334-1.115-0.334-2.123c0-0.965,0.112-1.654,0.334-2.064c0.261-0.633,0.67-1.229,1.228-1.784
	c0.483-0.483,1.097-0.894,1.841-1.229c0.633-0.26,1.341-0.391,2.122-0.391h66.627c0.779,0,1.486,0.131,2.123,0.391
	c0.74,0.338,1.338,0.729,1.781,1.175c0.521,0.521,0.932,1.135,1.229,1.841c0.262,0.48,0.393,1.172,0.393,2.063
	c0,0.932-0.131,1.64-0.393,2.123c-0.299,0.705-0.688,1.303-1.172,1.783c-0.596,0.598-1.209,1.024-1.84,1.284
	c-0.41,0.224-1.117,0.335-2.123,0.335L16.685,88.841L16.685,88.841z M16.685,22.266c-0.707,0-1.414-0.168-2.122-0.503
	c-0.706-0.298-1.301-0.689-1.784-1.172c-0.559-0.559-0.987-1.136-1.285-1.731c-0.223-0.408-0.334-1.133-0.334-2.175
	c0-1.004,0.112-1.712,0.334-2.122c0.261-0.633,0.67-1.228,1.228-1.784c0.521-0.521,1.135-0.931,1.841-1.229
	c0.483-0.26,1.19-0.391,2.122-0.391h66.627c0.931,0,1.638,0.13,2.123,0.391c0.74,0.298,1.338,0.708,1.781,1.229
	c0.521,0.446,0.932,1.041,1.229,1.784c0.262,0.483,0.393,1.19,0.393,2.122c0,0.966-0.131,1.691-0.393,2.175
	c-0.26,0.633-0.649,1.21-1.172,1.731c-0.668,0.483-1.281,0.874-1.84,1.172c-0.707,0.335-1.414,0.503-2.123,0.503H16.685z"/>
</svg>
