<?xml version="1.0" encoding="utf-8"?>
<!-- Generator: Adobe Illustrator 15.0.0, SVG Export Plug-In . SVG Version: 6.00 Build 0)  -->
<!DOCTYPE svg PUBLIC "-//W3C//DTD SVG 1.1//EN" "http://www.w3.org/Graphics/SVG/1.1/DTD/svg11.dtd">
<svg version="1.1" id="Capa_1" xmlns="http://www.w3.org/2000/svg" xmlns:xlink="http://www.w3.org/1999/xlink" x="0px" y="0px"
	 width="90.709px" height="90.709px" viewBox="0 0 90.709 90.709" enable-background="new 0 0 90.709 90.709" xml:space="preserve">
<path fill="none" stroke="#424242" stroke-width="2" stroke-miterlimit="10" d="M87.875,45.354
	c0-23.446-19.076-42.521-42.521-42.521c-23.446,0-42.521,19.075-42.521,42.521c0,23.445,19.074,42.521,42.521,42.521
	C68.799,87.876,87.875,68.802,87.875,45.354z"/>
<path fill="#FFFFFF" stroke="#303030" stroke-miterlimit="10" d="M23.802,68.544c-1.215,1.215-3.185,1.215-4.398,0
	c-0.605-0.609-0.912-1.404-0.912-2.201c0-0.799,0.307-1.59,0.912-2.199l23.749-23.752c1.218-1.215,3.188-1.215,4.403,0
	l23.748,23.752c1.218,1.215,1.218,3.184,0,4.4c-1.215,1.215-3.184,1.215-4.396,0L45.354,46.989L23.802,68.544z"/>
<path fill="#FFFFFF" stroke="#303030" stroke-miterlimit="10" d="M23.802,50.317c-1.215,1.215-3.185,1.215-4.398,0
	c-0.605-0.607-0.912-1.402-0.912-2.199c0-0.799,0.307-1.592,0.912-2.199l23.749-23.752c1.218-1.216,3.188-1.216,4.403,0
	l23.748,23.752c1.218,1.215,1.218,3.184,0,4.398c-1.215,1.215-3.184,1.215-4.396,0L45.354,28.765L23.802,50.317z"/>
</svg>
