<?xml version="1.0" encoding="utf-8"?>
<!-- Generator: Adobe Illustrator 15.0.0, SVG Export Plug-In . SVG Version: 6.00 Build 0)  -->
<!DOCTYPE svg PUBLIC "-//W3C//DTD SVG 1.1//EN" "http://www.w3.org/Graphics/SVG/1.1/DTD/svg11.dtd">
<svg version="1.1" id="Capa_1" xmlns="http://www.w3.org/2000/svg" xmlns:xlink="http://www.w3.org/1999/xlink" x="0px" y="0px"
	 width="90.709px" height="90.709px" viewBox="123.182 123.182 90.709 90.709"
	 enable-background="new 123.182 123.182 90.709 90.709" xml:space="preserve">
<path fill="none" stroke="#FFFFFF" stroke-width="2" stroke-miterlimit="10" d="M211.057,168.536
	c0-23.446-19.075-42.521-42.52-42.521c-23.446,0-42.52,19.075-42.52,42.521c0,23.445,19.074,42.521,42.52,42.521
	C191.982,211.057,211.057,191.984,211.057,168.536z"/>
<path fill="#FFFFFF" d="M146.986,189.85c-1.215,1.215-3.185,1.215-4.399,0c-0.606-0.608-0.912-1.403-0.912-2.2
	c0-0.799,0.306-1.591,0.912-2.2l23.749-23.752c1.218-1.215,3.188-1.215,4.403,0l23.749,23.752c1.217,1.215,1.217,3.185,0,4.4
	c-1.215,1.215-3.184,1.215-4.396,0l-21.555-21.553L146.986,189.85z"/>
<path fill="#FFFFFF" d="M146.986,171.625c-1.215,1.215-3.185,1.215-4.399,0c-0.606-0.608-0.912-1.403-0.912-2.2
	c0-0.799,0.306-1.591,0.912-2.2l23.749-23.752c1.218-1.215,3.188-1.215,4.403,0l23.749,23.752c1.217,1.215,1.217,3.185,0,4.4
	c-1.215,1.215-3.184,1.215-4.396,0l-21.555-21.553L146.986,171.625z"/>
</svg>
