<?xml version="1.0" encoding="utf-8"?>
<!-- Generator: Adobe Illustrator 15.0.0, SVG Export Plug-In . SVG Version: 6.00 Build 0)  -->
<!DOCTYPE svg PUBLIC "-//W3C//DTD SVG 1.1//EN" "http://www.w3.org/Graphics/SVG/1.1/DTD/svg11.dtd">
<svg version="1.1" id="Layer_1" xmlns="http://www.w3.org/2000/svg" xmlns:xlink="http://www.w3.org/1999/xlink" x="0px" y="0px"
	 width="595.279px" height="418.935px" viewBox="0 211.479 595.279 418.935" enable-background="new 0 211.479 595.279 418.935"
	 xml:space="preserve">
<rect x="216.235" y="326.04" fill="#FFFFFF" width="188.99" height="191.991"/>
<path fill="#D7143A" d="M572.078,247.44c-21.488-25.543-61.161-35.962-136.927-35.962H160.122
	c-77.499,0-117.845,11.092-139.252,38.286C0,276.278,0,315.346,0,369.417v103.059c0,104.75,24.763,157.938,160.122,157.938h275.031
	c65.704,0,102.111-9.195,125.665-31.736c24.155-23.117,34.461-60.859,34.461-126.201V369.417
	C595.28,312.395,593.665,273.097,572.078,247.44z M382.172,435.173l-124.891,65.271c-2.791,1.459-5.846,2.184-8.894,2.184
	c-3.453,0-6.898-0.93-9.949-2.775c-5.746-3.482-9.254-9.711-9.254-16.428V353.302c0-6.705,3.499-12.928,9.233-16.411
	c5.735-3.483,12.869-3.722,18.819-0.63l124.891,64.851c6.354,3.298,10.344,9.858,10.354,17.016
	C392.49,425.291,388.517,431.861,382.172,435.173z"/>
</svg>
