<?xml version="1.0" encoding="utf-8"?>
<!-- Generator: Adobe Illustrator 15.0.0, SVG Export Plug-In . SVG Version: 6.00 Build 0)  -->
<!DOCTYPE svg PUBLIC "-//W3C//DTD SVG 1.1//EN" "http://www.w3.org/Graphics/SVG/1.1/DTD/svg11.dtd">
<svg version="1.1" id="Layer_1" xmlns="http://www.w3.org/2000/svg" xmlns:xlink="http://www.w3.org/1999/xlink" x="0px" y="0px"
	 width="25px" height="25px" viewBox="0 0 25 25" enable-background="new 0 0 25 25" xml:space="preserve">
<circle fill="#212121" cx="12.5" cy="12.5" r="12.5"/>
<path fill="#111111" d="M21.34,3.66c4.881,4.883,4.881,12.797,0,17.68c-4.883,4.881-12.797,4.881-17.68,0L21.34,3.66z"/>
<path fill="#FFFFFF" d="M18.208,16.328h-1.103l0.008-0.624c0-0.277,0.232-0.503,0.52-0.503H17.7c0.287,0,0.521,0.228,0.521,0.503
	L18.208,16.328z M14.077,14.992c-0.276,0-0.507,0.185-0.507,0.409v3.027c0,0.224,0.23,0.404,0.507,0.404
	c0.281,0,0.511-0.181,0.511-0.404v-3.027C14.588,15.177,14.358,14.992,14.077,14.992z M20.784,13.301v5.763
	c0,1.382-1.229,2.514-2.735,2.514H6.801c-1.505,0-2.735-1.133-2.735-2.514v-5.763c0-1.384,1.231-2.517,2.735-2.517h11.248
	C19.556,10.784,20.784,11.917,20.784,13.301z M7.55,19.688v-6.071h1.396v-0.9l-3.717-0.005v0.885l1.16,0.002v6.089H7.55L7.55,19.688
	z M11.732,14.522h-1.164v3.242c0,0.469,0.03,0.703,0,0.786c-0.095,0.252-0.521,0.521-0.686,0.027
	c-0.028-0.085-0.003-0.345-0.003-0.791l-0.005-3.263H8.718l0.004,3.212c0,0.491-0.012,0.858,0.002,1.025
	c0.03,0.293,0.02,0.639,0.299,0.834c0.523,0.367,1.527-0.055,1.778-0.579l-0.003,0.671h0.935V14.522L11.732,14.522z M15.452,18.233
	l-0.003-2.697c-0.002-1.029-0.791-1.646-1.863-0.812l0.004-2.007l-1.161,0.001l-0.005,6.924l0.955-0.014l0.085-0.431
	C14.683,20.289,15.452,19.541,15.452,18.233z M19.089,17.875l-0.872,0.004c0,0.036-0.003,0.074-0.003,0.115v0.477
	c0,0.251-0.215,0.46-0.475,0.46h-0.171c-0.262,0-0.479-0.209-0.479-0.46v-0.055v-0.522v-0.671h1.997v-0.734
	c0-0.534-0.017-1.067-0.059-1.373c-0.144-0.968-1.535-1.121-2.241-0.627c-0.222,0.156-0.39,0.361-0.489,0.642
	c-0.1,0.278-0.146,0.655-0.146,1.139v1.608C16.15,20.555,19.486,20.179,19.089,17.875z M14.619,9.141
	c0.06,0.141,0.152,0.256,0.277,0.344c0.125,0.085,0.286,0.129,0.478,0.129c0.167,0,0.315-0.044,0.442-0.135
	c0.131-0.091,0.24-0.227,0.329-0.409l-0.023,0.445h1.297V4.148h-1.022v4.178c0,0.224-0.192,0.412-0.424,0.412
	c-0.232,0-0.428-0.186-0.428-0.412V4.148h-1.062v3.62c0,0.462,0.008,0.77,0.021,0.925C14.521,8.85,14.557,8.997,14.619,9.141z
	 M10.691,6.11c0-0.515,0.042-0.918,0.131-1.209C10.91,4.614,11.07,4.38,11.3,4.205c0.229-0.173,0.523-0.262,0.878-0.262
	c0.299,0,0.558,0.058,0.771,0.169c0.216,0.113,0.381,0.26,0.496,0.441c0.12,0.182,0.197,0.368,0.24,0.559
	c0.045,0.194,0.066,0.484,0.066,0.878v1.358c0,0.499-0.021,0.864-0.062,1.097c-0.039,0.234-0.122,0.45-0.256,0.652
	c-0.128,0.2-0.296,0.351-0.499,0.446c-0.202,0.097-0.438,0.145-0.701,0.145c-0.296,0-0.545-0.04-0.75-0.124
	c-0.206-0.082-0.365-0.207-0.479-0.374c-0.114-0.166-0.194-0.366-0.243-0.6c-0.049-0.236-0.071-0.588-0.071-1.058V6.11L10.691,6.11z
	 M11.706,8.241c0,0.306,0.232,0.554,0.515,0.554c0.282,0,0.515-0.25,0.515-0.554V5.385c0-0.304-0.232-0.553-0.515-0.553
	c-0.283,0-0.515,0.249-0.515,0.553V8.241z M8.119,9.684h1.224l0.001-4.117l1.444-3.526H9.452L8.683,4.662l-0.78-2.627H6.579
	l1.538,3.535L8.119,9.684z"/>
</svg>
