<?xml version="1.0" encoding="utf-8"?>
<!-- Generator: Adobe Illustrator 15.0.0, SVG Export Plug-In . SVG Version: 6.00 Build 0)  -->
<!DOCTYPE svg PUBLIC "-//W3C//DTD SVG 1.1//EN" "http://www.w3.org/Graphics/SVG/1.1/DTD/svg11.dtd">
<svg version="1.1" id="Layer_1" xmlns="http://www.w3.org/2000/svg" xmlns:xlink="http://www.w3.org/1999/xlink" x="0px" y="0px"
	 width="25px" height="17.595px" viewBox="0 3.703 25 17.595" enable-background="new 0 3.703 25 17.595" xml:space="preserve">
<g id="XMLID_822_">
	<path id="XMLID_823_" d="M24.023,5.214c-0.9-1.073-2.566-1.511-5.75-1.511H6.723c-3.254,0-4.948,0.467-5.848,1.608
		C0,6.426,0,8.065,0,10.337v4.328c0,4.398,1.039,6.633,6.725,6.633h11.551c2.76,0,4.287-0.387,5.277-1.333
		c1.016-0.972,1.447-2.557,1.447-5.3v-4.328C25,7.941,24.932,6.291,24.023,5.214z M16.049,13.098l-5.244,2.741
		c-0.117,0.061-0.246,0.092-0.375,0.092c-0.145,0-0.289-0.039-0.418-0.117c-0.24-0.146-0.389-0.407-0.389-0.688V9.66
		c0-0.281,0.147-0.543,0.389-0.689c0.24-0.146,0.541-0.156,0.791-0.025l5.244,2.724c0.268,0.138,0.436,0.413,0.436,0.714
		C16.482,12.683,16.314,12.959,16.049,13.098z"/>
</g>
</svg>
