<?xml version="1.0" encoding="utf-8"?>
<!-- Generator: Adobe Illustrator 15.0.0, SVG Export Plug-In . SVG Version: 6.00 Build 0)  -->
<!DOCTYPE svg PUBLIC "-//W3C//DTD SVG 1.1//EN" "http://www.w3.org/Graphics/SVG/1.1/DTD/svg11.dtd">
<svg version="1.1" id="Layer_1" xmlns="http://www.w3.org/2000/svg" xmlns:xlink="http://www.w3.org/1999/xlink" x="0px" y="0px"
	 width="25px" height="25px" viewBox="285.14 408.445 25 25" enable-background="new 285.14 408.445 25 25" xml:space="preserve">
<g>
	<g>
		<g>
			<polygon points="296.033,418.485 296.033,423.048 300.24,420.786 			"/>
		</g>
	</g>
	<g>
		<g>
			<path d="M303.87,408.445h-12.48c-3.433,0-6.25,2.818-6.25,6.27v12.48c0,3.433,2.817,6.25,6.25,6.25h12.48
				c3.452,0,6.27-2.817,6.27-6.27v-12.46C310.14,411.263,307.323,408.445,303.87,408.445z M305.378,421.56
				c0,1.31-0.119,2.639-0.119,2.639s-0.139,1.111-0.596,1.607c-0.595,0.655-1.25,0.655-1.547,0.694
				c-2.183,0.159-5.457,0.179-5.457,0.179s-4.068-0.06-5.318-0.179c-0.337-0.06-1.131-0.039-1.726-0.694
				c-0.476-0.496-0.595-1.607-0.595-1.607s-0.119-1.329-0.119-2.639v-1.23c0-1.31,0.119-2.639,0.119-2.639s0.139-1.111,0.595-1.607
				c0.595-0.655,1.25-0.675,1.548-0.714c2.202-0.159,5.476-0.179,5.476-0.179s3.273,0.02,5.456,0.179
				c0.298,0.04,0.973,0.06,1.567,0.694c0.477,0.496,0.596,1.627,0.596,1.627s0.119,1.33,0.119,2.639V421.56z"/>
		</g>
	</g>
</g>
</svg>
